HIERARCHY
ROOT Hips
{
	OFFSET 0.000000 0.000000 0.000000 
	CHANNELS 6 Xposition Yposition Zposition Zrotation Xrotation Yrotation
	JOINT Spine
	{
		OFFSET -0.000000 8.339920 0.000000 
		CHANNELS 3 Zrotation Xrotation Yrotation
		JOINT Spine1
		{
			OFFSET -0.000000 25.214485 0.000000 
			CHANNELS 3 Zrotation Xrotation Yrotation
			JOINT Neck
			{
				OFFSET -0.000000 25.110935 2.282812 
				CHANNELS 3 Zrotation Xrotation Yrotation
				JOINT Head
				{
					OFFSET -0.000000 14.238888 -2.034127 
					CHANNELS 3 Zrotation Xrotation Yrotation
					End Site
					{
						OFFSET -0.000000 25.426584 0.000000 
					}
				}
			}
			JOINT LeftShoulder
			{
				OFFSET 4.025024 23.158985 -0.185822 
				CHANNELS 3 Zrotation Xrotation Yrotation
				JOINT LeftArm
				{
					OFFSET 11.674057 0.000000 0.000000 
					CHANNELS 3 Zrotation Xrotation Yrotation
					JOINT LeftForeArm
					{
						OFFSET 31.688633 0.000000 0.000000 
						CHANNELS 3 Zrotation Xrotation Yrotation
						JOINT LeftHand
						{
							OFFSET 29.704493 0.000000 0.000000 
							CHANNELS 3 Zrotation Xrotation Yrotation
							End Site
							{
								OFFSET 15.255952 0.000000 0.000000 
							}
						}
					}
				}
			}
			JOINT RightShoulder
			{
				OFFSET -4.099539 23.158985 -0.185822 
				CHANNELS 3 Zrotation Xrotation Yrotation
				JOINT RightArm
				{
					OFFSET -11.674057 0.000000 0.000000 
					CHANNELS 3 Zrotation Xrotation Yrotation
					JOINT RightForeArm
					{
						OFFSET -31.688633 0.000000 0.000000 
						CHANNELS 3 Zrotation Xrotation Yrotation
						JOINT RightHand
						{
							OFFSET -29.704493 0.000000 0.000000 
							CHANNELS 3 Zrotation Xrotation Yrotation
							End Site
							{
								OFFSET -15.255952 0.000000 0.000000 
							}
						}
					}
				}
			}
		}
	}
	JOINT LeftUpLeg
	{
		OFFSET 10.170634 0.000000 0.000000 
		CHANNELS 3 Zrotation Xrotation Yrotation
		JOINT LeftLeg
		{
			OFFSET -0.000000 -41.352962 0.000000 
			CHANNELS 3 Zrotation Xrotation Yrotation
			JOINT LeftFoot
			{
				OFFSET -0.000000 -47.535004 0.000000 
				CHANNELS 3 Zrotation Xrotation Yrotation
				JOINT LeftToeBase
				{
					OFFSET -0.000000 -6.610912 15.255952 
					CHANNELS 3 Zrotation Xrotation Yrotation
					End Site
					{
						OFFSET -0.000000 0.000000 4.068254 
					}
				}
			}
		}
	}
	JOINT RightUpLeg
	{
		OFFSET -10.170634 0.000000 0.000000 
		CHANNELS 3 Zrotation Xrotation Yrotation
		JOINT RightLeg
		{
			OFFSET -0.000000 -41.352962 0.000000 
			CHANNELS 3 Zrotation Xrotation Yrotation
			JOINT RightFoot
			{
				OFFSET -0.000000 -47.535004 0.000000 
				CHANNELS 3 Zrotation Xrotation Yrotation
				JOINT RightToeBase
				{
					OFFSET -0.000000 -6.610912 15.255952 
					CHANNELS 3 Zrotation Xrotation Yrotation
					End Site
					{
						OFFSET -0.000000 0.000000 4.068254 
					}
				}
			}
		}
	}
}
MOTION
Frames: 15
Frame Time: 0.008333
0.004633 94.349220 0.005104 -2.856658 -0.751077 91.912605 -0.687488 -9.099462 -1.136354 4.530992 4.002026 -1.240037 -8.226200 30.344904 0.974474 5.162357 -6.824342 0.906654 12.644531 0.409821 -1.514931 -28.938694 -12.717286 6.966272 8.181214 -35.800159 -6.813600 3.897405 -35.339661 2.300364 -20.042055 -0.696904 -6.308140 32.048763 -7.307377 0.700646 -5.092411 -20.733633 3.721804 -28.202784 -19.968435 -2.589373 1.136120 5.410911 0.522086 -0.558252 -4.326988 5.115282 -0.302605 -3.953793 7.606716 0.000000 0.000000 0.000000 1.912537 4.574395 -2.710842 -3.069599 1.013523 -1.460366 0.861609 -6.889370 -10.193817 0.000000 0.000000 0.000000 
0.003227 94.350685 0.009296 -2.868880 -0.750366 91.901558 -0.689971 -9.100614 -1.142378 4.552461 3.991466 -1.246216 -8.269852 30.355593 0.994373 5.174709 -6.831811 0.922814 12.634945 0.409008 -1.507391 -29.002592 -12.714360 6.969239 8.205406 -35.778709 -6.853254 3.843670 -35.316746 2.253756 -20.057644 -0.707393 -6.302464 32.105396 -7.341447 0.714533 -5.084727 -20.717878 3.753081 -28.307217 -19.926195 -2.686242 1.143195 5.399712 0.527150 -0.565138 -4.326190 5.104217 -0.264811 -3.955208 7.607086 0.000000 0.000000 0.000000 1.912606 4.551199 -2.707981 -3.067186 1.028523 -1.474688 0.854798 -6.883438 -10.182389 0.000000 0.000000 0.000000 
0.008684 94.351212 0.012882 -2.868942 -0.748908 91.904358 -0.689122 -9.114987 -1.138160 4.548368 4.021834 -1.243045 -8.242817 30.305721 0.985794 5.167984 -6.766689 0.917428 12.640413 0.415617 -1.508099 -29.050055 -12.741433 6.927395 8.228009 -35.760746 -6.892790 3.887978 -35.294407 2.257957 -20.051918 -0.714830 -6.320149 32.158409 -7.334023 0.718943 -5.083771 -20.595667 3.693184 -27.420139 -19.854736 -2.563945 1.143334 5.403688 0.513869 -0.564619 -4.326380 5.110236 -0.290497 -3.956919 7.616509 0.000000 0.000000 0.000000 1.915687 4.561684 -2.702529 -3.068097 1.016600 -1.512069 0.870300 -6.878561 -10.154275 0.000000 0.000000 0.000000 
0.014618 94.352707 0.018127 -2.865102 -0.752193 91.902565 -0.676065 -9.111900 -1.147976 4.535663 4.020816 -1.253380 -8.246577 30.316507 1.000002 5.160636 -6.774227 0.929852 12.638326 0.426735 -1.492961 -29.078848 -12.771522 6.916019 8.223703 -35.660507 -6.875835 3.761936 -35.199703 2.150883 -20.033131 -0.735258 -6.298494 32.200859 -7.357124 0.717955 -5.076680 -20.619877 3.720443 -28.247601 -19.825407 -2.708632 1.153976 5.418589 0.519161 -0.571877 -4.332512 5.020115 -0.307611 -3.949857 7.709773 0.000000 0.000000 0.000000 1.921703 4.567858 -2.678211 -3.073699 1.020467 -1.502962 0.871675 -6.870208 -10.163122 0.000000 0.000000 0.000000 
0.015926 94.353661 0.019127 -2.874512 -0.744569 91.903267 -0.682476 -9.119843 -1.148401 4.537976 4.031891 -1.253771 -8.243382 30.257437 0.995216 5.168380 -6.705455 0.928580 12.644938 0.424728 -1.494169 -29.124233 -12.767077 6.909801 8.213295 -35.653667 -6.907647 3.767628 -35.191246 2.155061 -20.037300 -0.730227 -6.320616 32.252140 -7.320181 0.748538 -5.061888 -20.636425 3.687719 -28.274576 -19.835474 -2.741291 1.147449 5.405392 0.511247 -0.569600 -4.334854 5.153173 -0.310637 -3.933125 7.575098 0.000000 0.000000 0.000000 1.913486 4.555151 -2.692322 -3.069057 1.029290 -1.517457 0.865827 -6.878628 -10.149096 0.000000 0.000000 0.000000 
0.020325 94.354752 0.022396 -2.873628 -0.745505 91.904099 -0.690144 -9.123786 -1.149932 4.555975 4.042715 -1.255738 -8.216232 30.270638 0.980225 5.126247 -6.741604 0.909144 12.631280 0.420777 -1.501662 -29.149937 -12.773914 6.897920 8.253144 -35.645699 -6.899265 3.448767 -35.187679 2.114231 -20.035994 -0.734920 -6.311170 32.290260 -7.360120 0.737788 -5.044804 -20.626427 3.690395 -28.343004 -19.767950 -2.977855 1.154840 5.409784 0.510687 -0.578661 -4.330414 5.072746 -0.291241 -3.936770 7.658001 0.000000 0.000000 0.000000 1.917554 4.557386 -2.697342 -3.069768 1.028014 -1.504227 0.843092 -6.871805 -10.156311 0.000000 0.000000 0.000000 
0.022411 94.354652 0.025124 -2.877807 -0.742826 91.904198 -0.697819 -9.122728 -1.147990 4.567832 4.043077 -1.253637 -8.209524 30.252975 0.977890 5.124367 -6.737184 0.908198 12.630276 0.414808 -1.501669 -29.177322 -12.814179 6.882540 8.204659 -35.626858 -6.907540 3.672316 -35.166752 2.133947 -20.027098 -0.733766 -6.330783 32.323357 -7.370142 0.754177 -5.042590 -20.604176 3.653495 -28.270920 -19.793184 -2.791773 1.160966 5.408836 0.492528 -0.587931 -4.342685 5.151125 -0.306448 -3.927357 7.591727 0.000000 0.000000 0.000000 1.913842 4.549651 -2.691324 -3.068540 1.039336 -1.493786 0.868400 -6.889096 -10.165627 0.000000 0.000000 0.000000 
0.025047 94.353691 0.027164 -2.884422 -0.736509 91.905350 -0.703505 -9.120920 -1.154997 4.575679 4.035301 -1.260223 -8.219643 30.257891 0.979670 5.122263 -6.766040 0.909519 12.622139 0.416261 -1.510060 -29.210644 -12.756844 6.899961 8.204611 -35.621647 -6.907067 3.770690 -35.164215 1.979276 -20.021334 -0.732208 -6.312091 32.353912 -7.387300 0.752179 -5.036864 -20.615881 3.624399 -28.307720 -19.795582 -2.833283 1.155259 5.397321 0.510300 -0.585462 -4.328301 5.149926 -0.329042 -3.938495 7.570694 0.000000 0.000000 0.000000 1.913354 4.542403 -2.718230 -3.076553 1.041700 -1.504607 0.881319 -6.893379 -10.129246 0.000000 0.000000 0.000000 
0.028389 94.354294 0.029930 -2.886857 -0.737348 91.909416 -0.702088 -9.112243 -1.157856 4.574850 4.020746 -1.262598 -8.209811 30.252415 0.983267 5.120884 -6.777914 0.915012 12.621859 0.416458 -1.504080 -29.227236 -12.767203 6.881416 8.208505 -35.633068 -6.880339 3.640263 -35.173862 2.173420 -20.008612 -0.726455 -6.315039 32.387959 -7.401504 0.760028 -5.024647 -20.640486 3.573586 -28.368454 -19.838097 -2.762568 1.158900 5.393443 0.519921 -0.588245 -4.322444 5.076800 -0.306795 -3.935015 7.630764 0.000000 0.000000 0.000000 1.916499 4.537451 -2.713415 -3.077327 1.043180 -1.497792 0.868970 -6.888277 -10.144256 0.000000 0.000000 0.000000 
0.030382 94.354485 0.029369 -2.895376 -0.734897 91.914635 -0.696679 -9.119010 -1.159507 4.568658 4.031868 -1.264904 -8.185100 30.239466 0.971418 5.095438 -6.820118 0.903941 12.632648 0.403278 -1.510753 -29.263830 -12.733919 6.891375 8.197055 -35.653534 -6.879173 3.655655 -35.194191 2.198003 -19.999973 -0.726364 -6.340650 32.420341 -7.367925 0.779761 -5.020163 -20.653744 3.560988 -28.449183 -19.827806 -2.856159 1.159809 5.385067 0.499015 -0.592260 -4.325584 5.148359 -0.332356 -3.930652 7.572752 0.000000 0.000000 0.000000 1.911934 4.530241 -2.716119 -3.075853 1.047691 -1.507097 0.864372 -6.890994 -10.130203 0.000000 0.000000 0.000000 
0.033497 94.354401 0.033665 -2.888816 -0.740265 91.917374 -0.706526 -9.098923 -1.159240 4.597969 4.014697 -1.264262 -8.194885 30.244373 0.970599 5.110062 -6.853107 0.906276 12.623665 0.414678 -1.536259 -29.284111 -12.768362 6.897366 8.194730 -35.636200 -6.860870 3.660248 -35.176888 2.236631 -19.988022 -0.723590 -6.334044 32.426296 -7.354391 0.759290 -5.014943 -20.656584 3.534264 -28.344797 -19.809097 -2.963012 1.168808 5.386355 0.529701 -0.595748 -4.309718 5.087096 -0.363349 -3.940655 7.604410 0.000000 0.000000 0.000000 1.920386 4.538485 -2.719469 -3.074937 1.045612 -1.501180 0.878833 -6.883248 -10.141361 0.000000 0.000000 0.000000 
0.035419 94.354721 0.035320 -2.896672 -0.741713 91.919563 -0.685566 -9.095523 -1.141015 4.543978 4.007432 -1.245536 -8.081008 30.242977 0.946070 5.063386 -6.894503 0.888851 12.678991 0.418681 -1.557966 -29.335106 -12.775960 6.869031 8.206205 -35.630238 -6.837442 3.643936 -35.171383 2.259943 -19.908070 -0.720618 -6.378673 32.428070 -7.284739 0.753769 -5.025910 -20.689377 3.509373 -28.296904 -19.877825 -2.820597 1.174959 5.375425 0.524527 -0.602416 -4.302951 5.084762 -0.341308 -3.944800 7.612548 0.000000 0.000000 0.000000 1.918818 4.531934 -2.691516 -3.067297 1.051500 -1.516960 0.891540 -6.886913 -10.156153 0.000000 0.000000 0.000000 
0.042101 94.355278 0.036205 -2.891608 -0.744491 91.924553 -0.678663 -9.091410 -1.144711 4.541364 4.012305 -1.249887 -8.076646 30.252844 0.954278 5.066961 -6.963741 0.900248 12.681081 0.415205 -1.564211 -29.361845 -12.762136 6.878524 8.133914 -35.729248 -6.906038 4.031706 -35.256950 2.513069 -19.892242 -0.717354 -6.380571 32.457783 -7.268445 0.744879 -5.027757 -20.705055 3.497279 -28.300789 -19.896870 -2.808243 1.175454 5.378446 0.538138 -0.594324 -4.304367 5.182373 -0.392954 -3.935985 7.494367 0.000000 0.000000 0.000000 1.923533 4.547163 -2.702214 -3.068902 1.040647 -1.503599 0.890467 -6.885069 -10.160340 0.000000 0.000000 0.000000 
0.042841 94.356361 0.038830 -2.898634 -0.748535 91.926559 -0.688395 -9.096416 -1.149726 4.564224 4.022462 -1.255310 -8.045953 30.252384 0.954790 5.026379 -7.026087 0.900263 12.678134 0.418364 -1.570529 -29.389343 -12.804150 6.884003 8.165050 -35.737019 -6.901031 3.825287 -35.267075 2.518744 -19.916574 -0.705970 -6.341137 32.530056 -7.272034 0.683773 -5.060080 -20.684633 3.517571 -28.184010 -19.862364 -2.871978 1.185596 5.364654 0.529213 -0.604554 -4.288907 5.185066 -0.322367 -3.949674 7.500791 0.000000 0.000000 0.000000 1.928006 4.528348 -2.725260 -3.070166 1.061541 -1.481556 0.858924 -6.878939 -10.152585 0.000000 0.000000 0.000000 
0.046356 94.357140 0.039188 -2.902066 -0.749592 91.931084 -0.701949 -9.098217 -1.151264 4.599347 4.027144 -1.257234 -8.082524 30.255140 0.976101 5.074400 -7.092038 0.929176 12.655049 0.418351 -1.593701 -29.418982 -12.788364 6.909253 8.171995 -35.770351 -6.921087 3.843511 -35.297539 2.562702 -19.927982 -0.721190 -6.351676 32.566193 -7.259593 0.657266 -5.057280 -20.714859 3.542214 -28.247234 -19.883825 -2.899060 1.184654 5.361118 0.540743 -0.600541 -4.286531 5.172374 -0.378641 -3.940370 7.500298 0.000000 0.000000 0.000000 1.931520 4.531314 -2.714179 -3.073619 1.054322 -1.517098 0.854315 -6.875007 -10.135193 0.000000 0.000000 0.000000 
